<mxfile host="app.diagrams.net" modified="2024-03-29T14:33:26.901Z" agent="Mozilla/5.0 (Windows NT 10.0; Win64; x64) AppleWebKit/537.36 (KHTML, like Gecko) Chrome/122.0.0.0 Safari/537.36" version="24.2.1" etag="5qXG7db4B8PIO4o6ln-M" type="github">
  <diagram name="Page-1" id="xAxIvEXMtyVTnd1Igt_t">
    <mxGraphModel>
      <root>
        <mxCell id="0" />
        <mxCell id="1" parent="0" />
      </root>
    </mxGraphModel>
  </diagram>
</mxfile>
